STARTFONT 2.1
FONT -ibm-courier-medium-r-normal--18-180-100-100-m-109-iso8859-2
SIZE 18 100 100
FONTBOUNDINGBOX 18 23 -1 -3
COMMENT $Header: courR18.bdf,v 1.1 96/01/22 23:46:58 peterlin Exp $
COMMENT 
COMMENT Copyright International Business Machines,Corp. 1991
COMMENT IBM Courier is a Trademark of the IBM Corporation.
COMMENT 
COMMENT Automatic rendering from Adobe Type 1 outline:
COMMENT Primoz Peterlin <primoz.peterlin@biofiz.mf.uni-lj.si>
COMMENT cour.pfa rendered at 18.000000 points
COMMENT Checksum eb69a063
STARTPROPERTIES 3
FONT_ASCENT 19
FONT_DESCENT 3
DEFAULT_CHAR 32
ENDPROPERTIES
CHARS 191
STARTCHAR space
ENCODING 32
SWIDTH 597 0
DWIDTH 15 0
BBX 0 0 0 1
BITMAP
ENDCHAR
STARTCHAR exclam
ENCODING 33
SWIDTH 597 0
DWIDTH 15 0
BBX 3 14 6 1
BITMAP
c0
c0
c0
c0
c0
c0
c0
c0
c0
00
00
e0
e0
e0
ENDCHAR
STARTCHAR quotedbl
ENCODING 34
SWIDTH 597 0
DWIDTH 15 0
BBX 7 7 4 8
BITMAP
c6
c6
c6
c6
c6
c6
c6
ENDCHAR
STARTCHAR numbersign
ENCODING 35
SWIDTH 597 0
DWIDTH 15 0
BBX 11 17 2 0
BITMAP
1080
1080
1080
1080
1080
ffe0
1180
1100
1100
1100
3100
ffe0
2100
2100
2100
2100
2100
ENDCHAR
STARTCHAR dollar
ENCODING 36
SWIDTH 597 0
DWIDTH 15 0
BBX 10 19 2 -2
BITMAP
0400
0400
1fc0
27c0
44c0
4440
4440
6400
3c00
0780
04c0
4440
4440
6440
7480
5f00
0400
0400
0400
ENDCHAR
STARTCHAR percent
ENCODING 37
SWIDTH 597 0
DWIDTH 15 0
BBX 12 15 1 1
BITMAP
3c00
4600
8200
8200
4620
3c60
0380
0e00
7800
61e0
0330
0210
0210
0330
01e0
ENDCHAR
STARTCHAR ampersand
ENCODING 38
SWIDTH 597 0
DWIDTH 15 0
BBX 10 13 3 1
BITMAP
3d80
6200
4000
6000
3000
3000
78c0
cd80
8500
8700
8300
c700
79c0
ENDCHAR
STARTCHAR quoteright
ENCODING 39
SWIDTH 597 0
DWIDTH 15 0
BBX 5 6 5 9
BITMAP
30
70
60
60
c0
c0
ENDCHAR
STARTCHAR parenleft
ENCODING 40
SWIDTH 597 0
DWIDTH 15 0
BBX 5 19 7 -2
BITMAP
18
30
20
60
40
40
c0
80
80
80
80
80
80
40
40
60
20
30
10
ENDCHAR
STARTCHAR parenright
ENCODING 41
SWIDTH 597 0
DWIDTH 15 0
BBX 5 19 3 -2
BITMAP
40
60
20
30
10
10
18
08
08
08
08
08
08
10
10
30
20
60
c0
ENDCHAR
STARTCHAR asterisk
ENCODING 42
SWIDTH 597 0
DWIDTH 15 0
BBX 9 9 3 6
BITMAP
0c00
0c00
8880
fb80
3f00
1c00
3600
3300
2100
ENDCHAR
STARTCHAR plus
ENCODING 43
SWIDTH 597 0
DWIDTH 15 0
BBX 11 11 2 3
BITMAP
0400
0400
0400
0400
0400
ffe0
0400
0400
0400
0400
0400
ENDCHAR
STARTCHAR comma
ENCODING 44
SWIDTH 597 0
DWIDTH 15 0
BBX 4 6 5 -2
BITMAP
30
60
60
60
c0
c0
ENDCHAR
STARTCHAR minus
ENCODING 45
SWIDTH 597 0
DWIDTH 15 0
BBX 12 1 1 8
BITMAP
fff0
ENDCHAR
STARTCHAR period
ENCODING 46
SWIDTH 597 0
DWIDTH 15 0
BBX 4 3 5 1
BITMAP
60
f0
f0
ENDCHAR
STARTCHAR slash
ENCODING 47
SWIDTH 597 0
DWIDTH 15 0
BBX 10 21 2 -2
BITMAP
0040
00c0
0080
0180
0100
0100
0200
0200
0600
0400
0c00
0800
1800
1000
1000
2000
2000
6000
4000
c000
8000
ENDCHAR
STARTCHAR zero
ENCODING 48
SWIDTH 597 0
DWIDTH 15 0
BBX 9 15 3 1
BITMAP
3e00
6300
4100
c180
8080
8080
8080
8080
8080
8080
8080
c180
4100
6300
1c00
ENDCHAR
STARTCHAR one
ENCODING 49
SWIDTH 597 0
DWIDTH 15 0
BBX 10 15 3 1
BITMAP
1800
e800
8800
0800
0800
0800
0800
0800
0800
0800
0800
0800
0800
0800
ffc0
ENDCHAR
STARTCHAR two
ENCODING 50
SWIDTH 597 0
DWIDTH 15 0
BBX 10 15 2 1
BITMAP
3f00
6180
40c0
0040
0040
0040
0080
0180
0300
0400
0800
3040
6040
8040
ffc0
ENDCHAR
STARTCHAR three
ENCODING 51
SWIDTH 597 0
DWIDTH 15 0
BBX 10 15 2 1
BITMAP
3e00
4100
0080
0080
0080
0100
0e00
0300
0080
0040
0040
0040
00c0
c180
7e00
ENDCHAR
STARTCHAR four
ENCODING 52
SWIDTH 597 0
DWIDTH 15 0
BBX 10 15 2 1
BITMAP
0300
0500
0500
0900
1100
1100
2100
6100
4100
8100
ffc0
0100
0100
0100
1fc0
ENDCHAR
STARTCHAR five
ENCODING 53
SWIDTH 597 0
DWIDTH 15 0
BBX 10 15 2 1
BITMAP
7f80
4000
4000
4000
4000
5e00
6180
4080
0040
0040
0040
0040
00c0
4180
7f00
ENDCHAR
STARTCHAR six
ENCODING 54
SWIDTH 597 0
DWIDTH 15 0
BBX 9 15 3 1
BITMAP
0f80
1000
2000
4000
c000
8000
be00
e300
c180
8080
8080
8080
4180
6300
1e00
ENDCHAR
STARTCHAR seven
ENCODING 55
SWIDTH 597 0
DWIDTH 15 0
BBX 10 15 2 1
BITMAP
ffc0
8040
80c0
0080
0080
0180
0100
0100
0300
0200
0600
0600
0400
0c00
0c00
ENDCHAR
STARTCHAR eight
ENCODING 56
SWIDTH 597 0
DWIDTH 15 0
BBX 9 15 3 1
BITMAP
3e00
4100
8080
8080
8080
4180
6300
3e00
6300
c180
8080
8080
8080
6300
3e00
ENDCHAR
STARTCHAR nine
ENCODING 57
SWIDTH 597 0
DWIDTH 15 0
BBX 9 15 2 1
BITMAP
3e00
6300
c100
8080
8080
8080
4180
6380
1e80
0080
0180
0100
0300
0600
f800
ENDCHAR
STARTCHAR colon
ENCODING 58
SWIDTH 597 0
DWIDTH 15 0
BBX 4 10 5 1
BITMAP
60
f0
f0
00
00
00
00
60
f0
f0
ENDCHAR
STARTCHAR semicolon
ENCODING 59
SWIDTH 597 0
DWIDTH 15 0
BBX 4 13 5 -2
BITMAP
60
f0
f0
00
00
00
00
60
e0
c0
c0
80
80
ENDCHAR
STARTCHAR less
ENCODING 60
SWIDTH 597 0
DWIDTH 15 0
BBX 12 11 1 3
BITMAP
0030
00e0
0300
0c00
3000
e000
1c00
0700
01e0
0070
0010
ENDCHAR
STARTCHAR equal
ENCODING 61
SWIDTH 597 0
DWIDTH 15 0
BBX 12 5 1 6
BITMAP
fff0
0000
0000
0000
fff0
ENDCHAR
STARTCHAR greater
ENCODING 62
SWIDTH 597 0
DWIDTH 15 0
BBX 12 11 1 3
BITMAP
c000
7000
1c00
0300
00c0
0070
03c0
1e00
f800
e000
8000
ENDCHAR
STARTCHAR question
ENCODING 63
SWIDTH 597 0
DWIDTH 15 0
BBX 9 14 3 1
BITMAP
7c00
8300
8180
0080
0080
0180
0700
1c00
1000
1000
0000
3800
3800
3800
ENDCHAR
STARTCHAR at
ENCODING 64
SWIDTH 597 0
DWIDTH 15 0
BBX 13 14 1 1
BITMAP
0f80
3060
2030
4010
c748
8c88
8888
9088
9188
9390
4f60
4000
3030
1fc0
ENDCHAR
STARTCHAR A
ENCODING 65
SWIDTH 597 0
DWIDTH 15 0
BBX 15 14 0 1
BITMAP
1f00
0280
0280
0440
0440
0c60
0820
0820
1ff0
1010
2008
2008
200c
f83e
ENDCHAR
STARTCHAR B
ENCODING 66
SWIDTH 597 0
DWIDTH 15 0
BBX 12 14 1 1
BITMAP
ffc0
2060
2010
2010
2010
2060
3fc0
2060
2030
2010
2010
2010
2030
ffc0
ENDCHAR
STARTCHAR C
ENCODING 67
SWIDTH 597 0
DWIDTH 15 0
BBX 13 14 2 1
BITMAP
0fa0
3060
6020
4020
8020
8000
8000
8000
8000
8000
4000
6018
3070
0fc0
ENDCHAR
STARTCHAR D
ENCODING 68
SWIDTH 597 0
DWIDTH 15 0
BBX 13 14 1 1
BITMAP
ff80
2060
2030
2010
2018
2008
2008
2008
2008
2018
2010
2030
20e0
ff80
ENDCHAR
STARTCHAR E
ENCODING 69
SWIDTH 597 0
DWIDTH 15 0
BBX 12 14 1 1
BITMAP
fff0
1010
1010
1010
1090
1080
1f80
1080
1080
1010
1010
1010
1010
fff0
ENDCHAR
STARTCHAR F
ENCODING 70
SWIDTH 597 0
DWIDTH 15 0
BBX 12 14 2 1
BITMAP
ffe0
2020
2020
2030
2100
2100
3f00
2100
2100
2000
2000
2000
2000
fc00
ENDCHAR
STARTCHAR G
ENCODING 71
SWIDTH 597 0
DWIDTH 15 0
BBX 13 14 1 1
BITMAP
0f90
3070
6030
4010
8010
8000
8000
8000
81f8
8010
4010
6010
3830
0fc0
ENDCHAR
STARTCHAR H
ENCODING 72
SWIDTH 597 0
DWIDTH 15 0
BBX 13 14 1 1
BITMAP
f8f8
2020
2020
2020
2020
2020
3fe0
2020
2020
2020
2020
2020
2020
f8f8
ENDCHAR
STARTCHAR I
ENCODING 73
SWIDTH 597 0
DWIDTH 15 0
BBX 10 14 3 1
BITMAP
ffc0
0800
0800
0800
0800
0800
0800
0800
0800
0800
0800
0800
0800
ffc0
ENDCHAR
STARTCHAR J
ENCODING 74
SWIDTH 597 0
DWIDTH 15 0
BBX 13 14 1 1
BITMAP
0ff8
0040
0040
0040
0040
0040
0040
c040
4040
4040
4040
4040
6080
1f80
ENDCHAR
STARTCHAR K
ENCODING 75
SWIDTH 597 0
DWIDTH 15 0
BBX 13 14 2 1
BITMAP
f9f0
2040
2080
2100
2200
2400
2c00
3600
2300
2180
2080
20c0
2040
f878
ENDCHAR
STARTCHAR L
ENCODING 76
SWIDTH 597 0
DWIDTH 15 0
BBX 13 14 1 1
BITMAP
fe00
1000
1000
1000
1000
1000
1000
1000
1008
1008
1008
1008
1018
fff8
ENDCHAR
STARTCHAR M
ENCODING 77
SWIDTH 597 0
DWIDTH 15 0
BBX 15 14 0 1
BITMAP
f81e
2828
2828
2828
2448
2448
2448
2288
2288
2108
2008
2008
2008
f83e
ENDCHAR
STARTCHAR N
ENCODING 78
SWIDTH 597 0
DWIDTH 15 0
BBX 14 14 1 1
BITMAP
f0fc
3810
2810
2410
2410
2210
2210
2110
2110
2090
2090
2050
2050
fc30
ENDCHAR
STARTCHAR O
ENCODING 79
SWIDTH 597 0
DWIDTH 15 0
BBX 13 14 1 1
BITMAP
0f80
3060
6030
4010
c008
8008
8008
8008
8008
c018
4010
6030
3060
0f80
ENDCHAR
STARTCHAR P
ENCODING 80
SWIDTH 597 0
DWIDTH 15 0
BBX 11 14 2 1
BITMAP
ff80
20c0
2060
2020
2020
2020
2040
3f80
2000
2000
2000
2000
2000
fe00
ENDCHAR
STARTCHAR Q
ENCODING 81
SWIDTH 597 0
DWIDTH 15 0
BBX 13 17 1 -2
BITMAP
0f80
3060
6030
4010
c008
8008
8008
8008
8008
c018
4010
6030
3060
0f80
0c00
1f88
10f0
ENDCHAR
STARTCHAR R
ENCODING 82
SWIDTH 597 0
DWIDTH 15 0
BBX 13 14 1 1
BITMAP
ffc0
2060
2020
2020
2020
2060
3fc0
2300
2180
2080
20c0
2040
2040
fc38
ENDCHAR
STARTCHAR S
ENCODING 83
SWIDTH 597 0
DWIDTH 15 0
BBX 10 14 3 1
BITMAP
3ec0
4180
8080
80c0
8080
c000
7c00
0f80
00c0
0040
8040
80c0
c180
bf00
ENDCHAR
STARTCHAR T
ENCODING 84
SWIDTH 597 0
DWIDTH 15 0
BBX 13 14 1 1
BITMAP
fff8
c218
8208
8208
8208
8208
0200
0200
0200
0200
0200
0200
0200
1fc0
ENDCHAR
STARTCHAR U
ENCODING 85
SWIDTH 597 0
DWIDTH 15 0
BBX 13 14 1 1
BITMAP
f8f8
2020
2020
2020
2020
2020
2020
2020
2020
2020
2020
2020
1040
0f80
ENDCHAR
STARTCHAR V
ENCODING 86
SWIDTH 597 0
DWIDTH 15 0
BBX 15 14 0 1
BITMAP
f83e
2008
2008
1008
1010
1010
0820
0820
0440
0440
0640
0280
0280
0180
ENDCHAR
STARTCHAR W
ENCODING 87
SWIDTH 597 0
DWIDTH 15 0
BBX 15 14 0 1
BITMAP
f83e
6004
600c
2108
2388
2288
2288
26c8
2448
3458
3870
1830
1830
1030
ENDCHAR
STARTCHAR X
ENCODING 88
SWIDTH 597 0
DWIDTH 15 0
BBX 13 14 1 1
BITMAP
f8f8
2020
1060
18c0
0d80
0500
0200
0700
0d80
0880
1040
2060
2020
f8f8
ENDCHAR
STARTCHAR Y
ENCODING 89
SWIDTH 597 0
DWIDTH 15 0
BBX 13 14 1 1
BITMAP
f8f8
2020
3060
1040
0880
0c80
0500
0700
0200
0200
0200
0200
0200
1fc0
ENDCHAR
STARTCHAR Z
ENCODING 90
SWIDTH 597 0
DWIDTH 15 0
BBX 11 14 2 1
BITMAP
ffc0
80c0
8080
8100
8300
0600
0400
0c00
1800
1020
2020
6020
c020
ffe0
ENDCHAR
STARTCHAR bracketleft
ENCODING 91
SWIDTH 597 0
DWIDTH 15 0
BBX 4 18 8 -1
BITMAP
f0
80
80
80
80
80
80
80
80
80
80
80
80
80
80
80
80
f0
ENDCHAR
STARTCHAR backslash
ENCODING 92
SWIDTH 597 0
DWIDTH 15 0
BBX 10 21 3 -2
BITMAP
8000
c000
4000
6000
2000
2000
1000
1000
0800
0800
0400
0400
0600
0200
0200
0100
0100
0080
0080
0040
0040
ENDCHAR
STARTCHAR bracketright
ENCODING 93
SWIDTH 597 0
DWIDTH 15 0
BBX 4 18 3 -1
BITMAP
f0
10
10
10
10
10
10
10
10
10
10
10
10
10
10
10
10
f0
ENDCHAR
STARTCHAR asciicircum
ENCODING 94
SWIDTH 597 0
DWIDTH 15 0
BBX 11 10 2 5
BITMAP
0c00
0a00
0a00
1100
1100
2080
2080
6040
4040
c020
ENDCHAR
STARTCHAR underscore
ENCODING 95
SWIDTH 597 0
DWIDTH 15 0
BBX 17 1 -1 -2
BITMAP
ffff80
ENDCHAR
STARTCHAR quoteleft
ENCODING 96
SWIDTH 597 0
DWIDTH 15 0
BBX 4 6 5 9
BITMAP
30
30
60
60
e0
c0
ENDCHAR
STARTCHAR a
ENCODING 97
SWIDTH 597 0
DWIDTH 15 0
BBX 12 11 2 1
BITMAP
1f00
6180
0080
0080
3f80
4080
8080
8080
8180
c280
3cf0
ENDCHAR
STARTCHAR b
ENCODING 98
SWIDTH 597 0
DWIDTH 15 0
BBX 13 15 0 1
BITMAP
f000
1000
1000
1000
13c0
1c20
1810
1008
1008
1008
1008
1008
1810
1c30
f3c0
ENDCHAR
STARTCHAR c
ENCODING 99
SWIDTH 597 0
DWIDTH 15 0
BBX 12 11 2 1
BITMAP
1f20
30e0
4060
c020
8000
8000
8000
8000
4020
20e0
1f80
ENDCHAR
STARTCHAR d
ENCODING 100
SWIDTH 597 0
DWIDTH 15 0
BBX 14 15 1 1
BITMAP
00e0
0020
0020
0020
0f20
30a0
4060
c020
8020
8020
8020
8020
4060
30e0
1f3c
ENDCHAR
STARTCHAR e
ENCODING 101
SWIDTH 597 0
DWIDTH 15 0
BBX 12 11 2 1
BITMAP
1f00
30c0
4040
c020
8020
ffe0
8000
8000
4020
2070
1fc0
ENDCHAR
STARTCHAR f
ENCODING 102
SWIDTH 597 0
DWIDTH 15 0
BBX 11 15 2 1
BITMAP
0fe0
1800
1000
1000
1000
ffc0
1000
1000
1000
1000
1000
1000
1000
1000
ffc0
ENDCHAR
STARTCHAR g
ENCODING 103
SWIDTH 597 0
DWIDTH 15 0
BBX 13 15 1 -3
BITMAP
1e38
31a0
4060
c060
8020
8020
8020
c060
4060
31a0
1e20
0020
0020
00c0
1f80
ENDCHAR
STARTCHAR h
ENCODING 104
SWIDTH 597 0
DWIDTH 15 0
BBX 13 15 1 1
BITMAP
e000
2000
2000
2000
2780
3c40
3020
2020
2020
2020
2020
2020
2020
2020
f8f8
ENDCHAR
STARTCHAR i
ENCODING 105
SWIDTH 597 0
DWIDTH 15 0
BBX 9 16 3 1
BITMAP
0c00
0c00
0c00
0000
0000
f800
0800
0800
0800
0800
0800
0800
0800
0800
0800
ff80
ENDCHAR
STARTCHAR j
ENCODING 106
SWIDTH 597 0
DWIDTH 15 0
BBX 8 20 2 -3
BITMAP
03
03
03
00
00
ff
01
01
01
01
01
01
01
01
01
01
01
03
86
fc
ENDCHAR
STARTCHAR k
ENCODING 107
SWIDTH 597 0
DWIDTH 15 0
BBX 13 15 1 1
BITMAP
e000
2000
2000
2000
21f0
2080
2100
2600
2c00
3e00
2300
2180
20c0
2040
e0f8
ENDCHAR
STARTCHAR l
ENCODING 108
SWIDTH 597 0
DWIDTH 15 0
BBX 9 15 3 1
BITMAP
f800
0800
0800
0800
0800
0800
0800
0800
0800
0800
0800
0800
0800
0800
ff80
ENDCHAR
STARTCHAR m
ENCODING 109
SWIDTH 597 0
DWIDTH 15 0
BBX 15 11 0 1
BITMAP
ee70
3388
2108
2108
2108
2108
2108
2108
2108
2108
f9ce
ENDCHAR
STARTCHAR n
ENCODING 110
SWIDTH 597 0
DWIDTH 15 0
BBX 13 11 1 1
BITMAP
e780
3c40
3020
2020
2020
2020
2020
2020
2020
2020
f8f8
ENDCHAR
STARTCHAR o
ENCODING 111
SWIDTH 597 0
DWIDTH 15 0
BBX 13 11 1 1
BITMAP
0f80
3060
4010
c018
8008
8008
8008
c018
4010
3060
0f80
ENDCHAR
STARTCHAR p
ENCODING 112
SWIDTH 597 0
DWIDTH 15 0
BBX 14 15 0 -3
BITMAP
f3e0
1c30
1808
100c
1004
1004
1004
100c
1808
1c30
13c0
1000
1000
1000
fe00
ENDCHAR
STARTCHAR q
ENCODING 113
SWIDTH 597 0
DWIDTH 15 0
BBX 14 15 1 -3
BITMAP
1f3c
30e0
4060
c020
8020
8020
8020
c020
4060
30e0
0f20
0020
0020
0020
01fc
ENDCHAR
STARTCHAR r
ENCODING 114
SWIDTH 597 0
DWIDTH 15 0
BBX 12 11 2 1
BITMAP
f1e0
1230
1400
1800
1000
1000
1000
1000
1000
1000
ff80
ENDCHAR
STARTCHAR s
ENCODING 115
SWIDTH 597 0
DWIDTH 15 0
BBX 10 11 2 1
BITMAP
1e40
6180
4080
4080
6000
3f80
40c0
4040
6040
60c0
5f00
ENDCHAR
STARTCHAR t
ENCODING 116
SWIDTH 597 0
DWIDTH 15 0
BBX 10 14 3 1
BITMAP
4000
4000
4000
4000
ff80
4000
4000
4000
4000
4000
4000
4000
20c0
1f80
ENDCHAR
STARTCHAR u
ENCODING 117
SWIDTH 597 0
DWIDTH 15 0
BBX 13 11 1 1
BITMAP
e1e0
2020
2020
2020
2020
2020
2020
2020
2060
10e0
0f38
ENDCHAR
STARTCHAR v
ENCODING 118
SWIDTH 597 0
DWIDTH 15 0
BBX 13 11 1 1
BITMAP
f8f8
2020
3060
1040
1040
0880
0880
0c80
0500
0500
0200
ENDCHAR
STARTCHAR w
ENCODING 119
SWIDTH 597 0
DWIDTH 15 0
BBX 15 11 0 1
BITMAP
f01e
4004
4104
2108
2388
2288
1288
1450
1450
1450
0830
ENDCHAR
STARTCHAR x
ENCODING 120
SWIDTH 597 0
DWIDTH 15 0
BBX 13 11 1 1
BITMAP
f8f8
3060
18c0
0d80
0700
0600
0500
0880
1840
3060
f8f8
ENDCHAR
STARTCHAR y
ENCODING 121
SWIDTH 597 0
DWIDTH 15 0
BBX 15 15 0 -3
BITMAP
f83e
2018
3018
1830
1830
0c60
0440
06c0
0280
0380
0100
0300
0600
0600
ff80
ENDCHAR
STARTCHAR z
ENCODING 122
SWIDTH 597 0
DWIDTH 15 0
BBX 9 11 3 1
BITMAP
ff80
8100
8300
8600
0c00
0800
1000
2000
6080
c080
ff80
ENDCHAR
STARTCHAR braceleft
ENCODING 123
SWIDTH 597 0
DWIDTH 15 0
BBX 6 18 6 -1
BITMAP
1c
20
20
20
20
20
20
20
40
c0
20
20
20
20
20
20
20
1c
ENDCHAR
STARTCHAR bar
ENCODING 124
SWIDTH 597 0
DWIDTH 15 0
BBX 1 21 7 -3
BITMAP
80
80
80
80
80
80
80
80
80
80
80
80
80
80
80
80
80
80
80
80
80
ENDCHAR
STARTCHAR braceright
ENCODING 125
SWIDTH 597 0
DWIDTH 15 0
BBX 6 18 3 -1
BITMAP
e0
10
10
10
10
10
10
10
08
0c
10
10
10
10
10
10
10
e0
ENDCHAR
STARTCHAR asciitilde
ENCODING 126
SWIDTH 597 0
DWIDTH 15 0
BBX 11 4 2 7
BITMAP
1020
7e60
47c0
4000
ENDCHAR
STARTCHAR space
ENCODING 160
SWIDTH 597 0
DWIDTH 15 0
BBX 0 0 0 1
BITMAP
ENDCHAR
STARTCHAR Aogonek
ENCODING 161
SWIDTH 597 0
DWIDTH 15 0
BBX 15 17 0 -2
BITMAP
1f00
0280
0280
04c0
0440
0c60
0820
0820
1ff0
1010
2008
2008
200c
f83e
0010
0014
0018
ENDCHAR
STARTCHAR breve
ENCODING 162
SWIDTH 597 0
DWIDTH 15 0
BBX 8 2 3 14
BITMAP
c1
3e
ENDCHAR
STARTCHAR Lslash
ENCODING 163
SWIDTH 597 0
DWIDTH 15 0
BBX 13 14 1 1
BITMAP
fe00
1000
1000
1080
1380
1600
1c00
7008
5008
1008
1008
1008
1018
fff8
ENDCHAR
STARTCHAR currency
ENCODING 164
SWIDTH 597 0
DWIDTH 15 0
BBX 11 11 2 3
BITMAP
4020
c060
5f40
3180
4040
4040
4040
60c0
3180
5f40
c060
ENDCHAR
STARTCHAR Lcaron
ENCODING 165
SWIDTH 597 0
DWIDTH 15 0
BBX 13 15 1 1
BITMAP
0060
fec0
1180
1000
1000
1000
1000
1000
1000
1008
1008
1008
1008
1018
fff8
ENDCHAR
STARTCHAR Sacute
ENCODING 166
SWIDTH 597 0
DWIDTH 15 0
BBX 10 19 3 1
BITMAP
0c00
1800
3000
0000
0000
3ec0
4180
8080
80c0
8080
c000
7c00
0f80
00c0
0040
8040
80c0
c180
bf00
ENDCHAR
STARTCHAR section
ENCODING 167
SWIDTH 597 0
DWIDTH 15 0
BBX 9 16 3 -1
BITMAP
1f80
2080
2080
2000
3000
4c00
8600
8300
6180
3080
1880
0700
0200
8200
8200
fc00
ENDCHAR
STARTCHAR dieresis
ENCODING 168
SWIDTH 597 0
DWIDTH 15 0
BBX 6 3 5 13
BITMAP
cc
cc
cc
ENDCHAR
STARTCHAR Scaron
ENCODING 169
SWIDTH 597 0
DWIDTH 15 0
BBX 10 19 3 1
BITMAP
4200
3400
1800
0000
0000
3ec0
4180
8080
80c0
8080
c000
7c00
0f80
00c0
0040
8040
80c0
c180
bf00
ENDCHAR
STARTCHAR Scedilla
ENCODING 170
SWIDTH 597 0
DWIDTH 15 0
BBX 10 18 3 -3
BITMAP
3ec0
4180
8080
80c0
8080
c000
7c00
0f80
00c0
0040
8040
8040
c180
be00
0c00
0600
2200
3c00
ENDCHAR
STARTCHAR Tcaron
ENCODING 171
SWIDTH 597 0
DWIDTH 15 0
BBX 13 19 1 1
BITMAP
1080
0d00
0600
0000
0000
fff8
c218
8208
8208
8208
8208
0200
0200
0200
0200
0200
0200
0200
1fc0
ENDCHAR
STARTCHAR Zacute
ENCODING 172
SWIDTH 597 0
DWIDTH 15 0
BBX 11 19 2 1
BITMAP
0600
0c00
1800
0000
0000
ffc0
80c0
8080
8100
8300
0600
0400
0c00
1800
1020
2020
6020
c020
ffe0
ENDCHAR
STARTCHAR hyphen
ENCODING 173
SWIDTH 597 0
DWIDTH 15 0
BBX 5 1 5 8
BITMAP
f8
ENDCHAR
STARTCHAR Zcaron
ENCODING 174
SWIDTH 597 0
DWIDTH 15 0
BBX 11 19 2 1
BITMAP
2100
1a00
0c00
0000
0000
ffc0
80c0
8080
8100
8300
0600
0400
0c00
1800
1020
2020
6020
c020
ffe0
ENDCHAR
STARTCHAR Zdotaccent
ENCODING 175
SWIDTH 597 0
DWIDTH 15 0
BBX 11 19 2 1
BITMAP
0400
0400
0400
0000
0000
ffc0
80c0
8080
8100
8300
0600
0400
0c00
1800
1020
2020
6020
c020
ffe0
ENDCHAR
STARTCHAR degree
ENCODING 176
SWIDTH 597 0
DWIDTH 15 0
BBX 7 7 4 9
BITMAP
38
44
82
82
82
44
38
ENDCHAR
STARTCHAR aogonek
ENCODING 177
SWIDTH 597 0
DWIDTH 15 0
BBX 12 14 2 -2
BITMAP
1f00
6180
0080
0080
3f80
4080
8080
8080
8180
c280
3cf0
0080
00a0
00c0
ENDCHAR
STARTCHAR ogonek
ENCODING 178
SWIDTH 597 0
DWIDTH 15 0
BBX 4 3 6 -2
BITMAP
40
90
e0
ENDCHAR
STARTCHAR lslash
ENCODING 179
SWIDTH 597 0
DWIDTH 15 0
BBX 9 15 3 1
BITMAP
f800
0800
0800
0800
0880
0b80
0e00
3800
e800
8800
0800
0800
0800
0800
ff80
ENDCHAR
STARTCHAR acute
ENCODING 180
SWIDTH 597 0
DWIDTH 15 0
BBX 5 3 5 13
BITMAP
30
60
c0
ENDCHAR
STARTCHAR lcaron
ENCODING 181
SWIDTH 597 0
DWIDTH 15 0
BBX 11 15 3 1
BITMAP
f8c0
0980
0b00
0800
0800
0800
0800
0800
0800
0800
0800
0800
0800
0800
ff80
ENDCHAR
STARTCHAR sacute
ENCODING 182
SWIDTH 597 0
DWIDTH 15 0
BBX 10 15 2 1
BITMAP
0600
0c00
1800
0000
1e40
6180
4080
4080
6000
3f80
40c0
4040
6040
60c0
5f00
ENDCHAR
STARTCHAR caron
ENCODING 183
SWIDTH 597 0
DWIDTH 15 0
BBX 6 2 4 14
BITMAP
48
30
ENDCHAR
STARTCHAR cedilla
ENCODING 184
SWIDTH 597 0
DWIDTH 15 0
BBX 5 5 5 -3
BITMAP
20
30
38
88
f0
ENDCHAR
STARTCHAR scaron
ENCODING 185
SWIDTH 597 0
DWIDTH 15 0
BBX 10 15 2 1
BITMAP
1200
0c00
0000
0000
1e40
6180
4080
4080
6000
3f80
40c0
4040
6040
60c0
5f00
ENDCHAR
STARTCHAR scedilla
ENCODING 186
SWIDTH 597 0
DWIDTH 15 0
BBX 10 15 2 -3
BITMAP
1e40
6180
4080
4080
6000
3f80
40c0
4040
6040
60c0
5f80
0600
0700
1100
1e00
ENDCHAR
STARTCHAR tcaron
ENCODING 187
SWIDTH 597 0
DWIDTH 15 0
BBX 10 15 3 1
BITMAP
0300
4600
4c00
4000
4000
ff80
4000
4000
4000
4000
4000
4000
4000
20c0
1f80
ENDCHAR
STARTCHAR zacute
ENCODING 188
SWIDTH 597 0
DWIDTH 15 0
BBX 9 15 3 1
BITMAP
0c00
1800
3000
0000
ff80
8100
8300
8600
0c00
0800
1000
2000
6080
c080
ff80
ENDCHAR
STARTCHAR hungarumlaut
ENCODING 189
SWIDTH 597 0
DWIDTH 15 0
BBX 7 3 5 13
BITMAP
24
48
d0
ENDCHAR
STARTCHAR zcaron
ENCODING 190
SWIDTH 597 0
DWIDTH 15 0
BBX 9 15 3 1
BITMAP
2400
1800
0000
0000
ff80
8100
8300
8600
0c00
0800
1000
2000
6080
c080
ff80
ENDCHAR
STARTCHAR zdotaccent
ENCODING 191
SWIDTH 597 0
DWIDTH 15 0
BBX 9 15 3 1
BITMAP
0800
0800
0800
0000
ff80
8100
8300
8600
0c00
0800
1000
2000
6080
c080
ff80
ENDCHAR
STARTCHAR Racute
ENCODING 192
SWIDTH 597 0
DWIDTH 15 0
BBX 13 19 1 1
BITMAP
0300
0600
0c00
0000
0000
ffc0
2060
2020
2020
2020
2060
3fc0
2300
2180
2080
20c0
2040
2040
fc38
ENDCHAR
STARTCHAR Aacute
ENCODING 193
SWIDTH 597 0
DWIDTH 15 0
BBX 15 19 0 1
BITMAP
0180
0300
0600
0000
0000
1f00
0280
0280
0440
0440
0c60
0820
0820
1ff0
1010
2008
2008
200c
f83e
ENDCHAR
STARTCHAR Acircumflex
ENCODING 194
SWIDTH 597 0
DWIDTH 15 0
BBX 15 19 0 1
BITMAP
0300
0580
0840
0000
0000
1f00
0280
0280
0440
0440
0c60
0820
0820
1ff0
1010
2008
2008
200c
f83e
ENDCHAR
STARTCHAR Abreve
ENCODING 195
SWIDTH 597 0
DWIDTH 15 0
BBX 15 19 0 1
BITMAP
1020
0840
0780
0000
0000
1f00
0280
0280
0440
0440
0c60
0820
0820
1ff0
1010
2008
2008
200c
f83e
ENDCHAR
STARTCHAR Adieresis
ENCODING 196
SWIDTH 597 0
DWIDTH 15 0
BBX 15 19 0 1
BITMAP
0660
0660
0660
0000
0000
1f00
0280
0280
0440
0440
0c60
0820
0820
1ff0
1010
2008
2008
200c
f83e
ENDCHAR
STARTCHAR Lacute
ENCODING 197
SWIDTH 597 0
DWIDTH 15 0
BBX 13 19 1 1
BITMAP
0c00
1800
3000
0000
0000
fe00
1000
1000
1000
1000
1000
1000
1000
1008
1008
1008
1008
1018
fff8
ENDCHAR
STARTCHAR Cacute
ENCODING 198
SWIDTH 597 0
DWIDTH 15 0
BBX 13 19 2 1
BITMAP
0300
0600
0c00
0000
0000
0fa0
3060
6020
4020
8020
8000
8000
8000
8000
8000
4000
6018
3070
0fc0
ENDCHAR
STARTCHAR Ccedilla
ENCODING 199
SWIDTH 597 0
DWIDTH 15 0
BBX 13 18 2 -3
BITMAP
0fa0
3060
6020
4020
8020
8000
8000
8000
8000
8000
4000
6018
3070
0fc0
0200
0300
0880
0f00
ENDCHAR
STARTCHAR Ccaron
ENCODING 200
SWIDTH 597 0
DWIDTH 15 0
BBX 13 19 2 1
BITMAP
1080
0d00
0600
0000
0000
0fa0
3060
6020
4020
8020
8000
8000
8000
8000
8000
4000
6018
3070
0fc0
ENDCHAR
STARTCHAR Eacute
ENCODING 201
SWIDTH 597 0
DWIDTH 15 0
BBX 12 19 1 1
BITMAP
0300
0600
0c00
0000
0000
fff0
1010
1010
1010
1090
1080
1f80
1080
1080
1010
1010
1010
1010
fff0
ENDCHAR
STARTCHAR Eogonek
ENCODING 202
SWIDTH 597 0
DWIDTH 15 0
BBX 12 17 1 -2
BITMAP
fff0
1010
1010
1010
1090
1080
1f80
1080
1080
1010
1010
1010
1010
fff0
00c0
0090
00e0
ENDCHAR
STARTCHAR Edieresis
ENCODING 203
SWIDTH 597 0
DWIDTH 15 0
BBX 12 19 1 1
BITMAP
0cc0
0cc0
0cc0
0000
0000
fff0
1010
1010
1010
1090
1080
1f80
1080
1080
1010
1010
1010
1010
fff0
ENDCHAR
STARTCHAR Ecaron
ENCODING 204
SWIDTH 597 0
DWIDTH 15 0
BBX 12 19 1 1
BITMAP
1080
0d00
0600
0000
0000
fff0
1010
1010
1010
1090
1080
1f80
1080
1080
1010
1010
1010
1010
fff0
ENDCHAR
STARTCHAR Iacute
ENCODING 205
SWIDTH 597 0
DWIDTH 15 0
BBX 10 19 3 1
BITMAP
0c00
1800
3000
0000
0000
ffc0
0800
0800
0800
0800
0800
0800
0800
0800
0800
0800
0800
0800
ffc0
ENDCHAR
STARTCHAR Icircumflex
ENCODING 206
SWIDTH 597 0
DWIDTH 15 0
BBX 10 19 3 1
BITMAP
1800
2c00
4200
0000
0000
ffc0
0800
0800
0800
0800
0800
0800
0800
0800
0800
0800
0800
0800
ffc0
ENDCHAR
STARTCHAR Dcaron
ENCODING 207
SWIDTH 597 0
DWIDTH 15 0
BBX 13 19 1 1
BITMAP
1080
0d00
0600
0000
0000
ff80
2060
2030
2010
2018
2008
2008
2008
2008
2018
2010
2030
20e0
ff80
ENDCHAR
STARTCHAR Eth
ENCODING 208
SWIDTH 597 0
DWIDTH 15 0
BBX 13 14 1 1
BITMAP
ff80
2060
2030
2010
2018
2008
fe08
2008
2008
2018
2010
2030
20e0
ff80
ENDCHAR
STARTCHAR Nacute
ENCODING 209
SWIDTH 597 0
DWIDTH 15 0
BBX 14 19 1 1
BITMAP
0300
0600
0c00
0000
0000
f0fc
3810
2810
2410
2410
2210
2210
2110
2110
2090
2090
2050
2050
fc30
ENDCHAR
STARTCHAR Ncaron
ENCODING 210
SWIDTH 597 0
DWIDTH 15 0
BBX 14 19 1 1
BITMAP
1080
0d00
0600
0000
0000
f0fc
3810
2810
2410
2410
2210
2210
2110
2110
2090
2090
2050
2050
fc30
ENDCHAR
STARTCHAR Oacute
ENCODING 211
SWIDTH 597 0
DWIDTH 15 0
BBX 13 19 1 1
BITMAP
0300
0600
0c00
0000
0000
0f80
3060
6030
4010
c008
8008
8008
8008
8008
c018
4010
6030
3060
0f80
ENDCHAR
STARTCHAR Ocircumflex
ENCODING 212
SWIDTH 597 0
DWIDTH 15 0
BBX 13 19 1 1
BITMAP
0600
0b00
1080
0000
0000
0f80
3060
6030
4010
c008
8008
8008
8008
8008
c018
4010
6030
3060
0f80
ENDCHAR
STARTCHAR Ohungarumlaut
ENCODING 213
SWIDTH 597 0
DWIDTH 15 0
BBX 13 19 1 1
BITMAP
0240
0480
0d00
0000
0000
0f80
3060
6030
4010
c008
8008
8008
8008
8008
c018
4010
6030
3060
0f80
ENDCHAR
STARTCHAR Odieresis
ENCODING 214
SWIDTH 597 0
DWIDTH 15 0
BBX 13 19 1 1
BITMAP
0cc0
0cc0
0cc0
0000
0000
0f80
3060
6030
4010
c008
8008
8008
8008
8008
c018
4010
6030
3060
0f80
ENDCHAR
STARTCHAR multiply
ENCODING 215
SWIDTH 597 0
DWIDTH 15 0
BBX 9 9 3 4
BITMAP
c100
6380
3700
1c00
0800
1400
2200
4100
8080
ENDCHAR
STARTCHAR Rcaron
ENCODING 216
SWIDTH 597 0
DWIDTH 15 0
BBX 13 19 1 1
BITMAP
1080
0d00
0600
0000
0000
ffc0
2060
2020
2020
2020
2060
3fc0
2300
2180
2080
20c0
2040
2040
fc38
ENDCHAR
STARTCHAR Uring
ENCODING 217
SWIDTH 597 0
DWIDTH 15 0
BBX 13 19 1 1
BITMAP
0700
0500
0700
0000
0000
f8f8
2020
2020
2020
2020
2020
2020
2020
2020
2020
2020
2020
1040
0f80
ENDCHAR
STARTCHAR Uacute
ENCODING 218
SWIDTH 597 0
DWIDTH 15 0
BBX 13 19 1 1
BITMAP
0300
0600
0c00
0000
0000
f8f8
2020
2020
2020
2020
2020
2020
2020
2020
2020
2020
2020
1040
0f80
ENDCHAR
STARTCHAR Uhungarumlaut
ENCODING 219
SWIDTH 597 0
DWIDTH 15 0
BBX 13 19 1 1
BITMAP
0240
0480
0d00
0000
0000
f8f8
2020
2020
2020
2020
2020
2020
2020
2020
2020
2020
2020
1040
0f80
ENDCHAR
STARTCHAR Udieresis
ENCODING 220
SWIDTH 597 0
DWIDTH 15 0
BBX 13 19 1 1
BITMAP
0cc0
0cc0
0cc0
0000
0000
f8f8
2020
2020
2020
2020
2020
2020
2020
2020
2020
2020
2020
1040
0f80
ENDCHAR
STARTCHAR Yacute
ENCODING 221
SWIDTH 597 0
DWIDTH 15 0
BBX 13 19 1 1
BITMAP
0300
0600
0c00
0000
0000
f8f8
2020
3060
1040
0880
0c80
0500
0700
0200
0200
0200
0200
0200
1fc0
ENDCHAR
STARTCHAR Tcedilla
ENCODING 222
SWIDTH 597 0
DWIDTH 15 0
BBX 13 18 1 -3
BITMAP
fff8
c218
8208
8208
8208
8208
0200
0200
0200
0200
0200
0200
0200
1fc0
0300
0300
0900
0f00
ENDCHAR
STARTCHAR germandbls
ENCODING 223
SWIDTH 597 0
DWIDTH 15 0
BBX 11 15 2 1
BITMAP
0f00
1180
2080
2080
2080
2300
2e00
2180
2040
2020
2020
2020
2060
28c0
ef80
ENDCHAR
STARTCHAR racute
ENCODING 224
SWIDTH 597 0
DWIDTH 15 0
BBX 12 15 2 1
BITMAP
0600
0c00
1800
0000
f1e0
1230
1400
1800
1000
1000
1000
1000
1000
1000
ff80
ENDCHAR
STARTCHAR aacute
ENCODING 225
SWIDTH 597 0
DWIDTH 15 0
BBX 12 15 2 1
BITMAP
0600
0c00
1800
0000
1f00
6180
0080
0080
3f80
4080
8080
8080
8180
c280
3cf0
ENDCHAR
STARTCHAR acircumflex
ENCODING 226
SWIDTH 597 0
DWIDTH 15 0
BBX 12 15 2 1
BITMAP
0c00
3300
0000
0000
1f00
6180
0080
0080
3f80
4080
8080
8080
8180
c280
3cf0
ENDCHAR
STARTCHAR abreve
ENCODING 227
SWIDTH 597 0
DWIDTH 15 0
BBX 12 15 2 1
BITMAP
6080
1f00
0000
0000
1f00
6180
0080
0080
3f80
4080
8080
8080
8180
c280
3cf0
ENDCHAR
STARTCHAR adieresis
ENCODING 228
SWIDTH 597 0
DWIDTH 15 0
BBX 12 15 2 1
BITMAP
1b00
1b00
1b00
0000
1f00
6180
0080
0080
3f80
4080
8080
8080
8180
c280
3cf0
ENDCHAR
STARTCHAR lacute
ENCODING 229
SWIDTH 597 0
DWIDTH 15 0
BBX 9 19 3 1
BITMAP
0c00
1800
3000
0000
f800
0800
0800
0800
0800
0800
0800
0800
0800
0800
0800
0800
0800
0800
ff80
ENDCHAR
STARTCHAR cacute
ENCODING 230
SWIDTH 597 0
DWIDTH 15 0
BBX 12 15 2 1
BITMAP
0300
0600
0c00
0000
1f20
30e0
4060
c020
8000
8000
8000
8000
4020
20e0
1f80
ENDCHAR
STARTCHAR ccedilla
ENCODING 231
SWIDTH 597 0
DWIDTH 15 0
BBX 12 15 2 -3
BITMAP
1f20
20e0
4060
8020
8000
8000
8000
8000
4020
60e0
1f80
0400
0600
0600
0e00
ENDCHAR
STARTCHAR ccaron
ENCODING 232
SWIDTH 597 0
DWIDTH 15 0
BBX 12 15 2 1
BITMAP
0900
0600
0000
0000
1f20
30e0
4060
c020
8000
8000
8000
8000
4020
20e0
1f80
ENDCHAR
STARTCHAR eacute
ENCODING 233
SWIDTH 597 0
DWIDTH 15 0
BBX 12 15 2 1
BITMAP
0600
0c00
1800
0000
1f00
30c0
4040
c020
8020
ffe0
8000
8000
4020
2070
1fc0
ENDCHAR
STARTCHAR eogonek
ENCODING 234
SWIDTH 597 0
DWIDTH 15 0
BBX 12 14 2 -2
BITMAP
1f00
20c0
4040
c020
8020
ffe0
8000
8000
4020
60f0
1fc0
0600
0480
0700
ENDCHAR
STARTCHAR edieresis
ENCODING 235
SWIDTH 597 0
DWIDTH 15 0
BBX 12 15 2 1
BITMAP
1980
1980
1980
0000
1f00
30c0
4040
c020
8020
ffe0
8000
8000
4020
2070
1fc0
ENDCHAR
STARTCHAR ecaron
ENCODING 236
SWIDTH 597 0
DWIDTH 15 0
BBX 12 15 2 1
BITMAP
1200
0c00
0000
0000
1f00
30c0
4040
c020
8020
ffe0
8000
8000
4020
2070
1fc0
ENDCHAR
STARTCHAR iacute
ENCODING 237
SWIDTH 597 0
DWIDTH 15 0
BBX 9 15 3 1
BITMAP
0c00
1800
3000
0000
f800
0800
0800
0800
0800
0800
0800
0800
0800
0800
ff80
ENDCHAR
STARTCHAR icircumflex
ENCODING 238
SWIDTH 597 0
DWIDTH 15 0
BBX 9 15 3 1
BITMAP
1800
6600
0000
0000
f800
0800
0800
0800
0800
0800
0800
0800
0800
0800
ff80
ENDCHAR
STARTCHAR dcaron
ENCODING 239
SWIDTH 597 0
DWIDTH 15 0
BBX 16 15 1 1
BITMAP
00e6
002c
0038
0020
0f20
30a0
4060
c020
8020
8020
8020
8020
4060
30e0
1f3c
ENDCHAR
STARTCHAR dbar
ENCODING 240
SWIDTH 597 0
DWIDTH 15 0
BBX 14 15 1 1
BITMAP
00e0
0020
0ffc
0020
0f20
30a0
4060
c020
8020
8020
8020
8020
4060
30e0
1f3c
ENDCHAR
STARTCHAR nacute
ENCODING 241
SWIDTH 597 0
DWIDTH 15 0
BBX 13 15 1 1
BITMAP
0300
0600
0c00
0000
e780
3c40
3020
2020
2020
2020
2020
2020
2020
2020
f8f8
ENDCHAR
STARTCHAR ncaron
ENCODING 242
SWIDTH 597 0
DWIDTH 15 0
BBX 13 15 1 1
BITMAP
0900
0600
0000
0000
e780
3c40
3020
2020
2020
2020
2020
2020
2020
2020
f8f8
ENDCHAR
STARTCHAR oacute
ENCODING 243
SWIDTH 597 0
DWIDTH 15 0
BBX 13 15 1 1
BITMAP
0300
0600
0c00
0000
0f80
3060
4010
c018
8008
8008
8008
c018
4010
3060
0f80
ENDCHAR
STARTCHAR ocircumflex
ENCODING 244
SWIDTH 597 0
DWIDTH 15 0
BBX 13 15 1 1
BITMAP
0600
1980
0000
0000
0f80
3060
4010
c018
8008
8008
8008
c018
4010
3060
0f80
ENDCHAR
STARTCHAR ohungarumlaut
ENCODING 245
SWIDTH 597 0
DWIDTH 15 0
BBX 13 15 1 1
BITMAP
0240
0480
0d00
0000
0f80
3060
4010
c018
8008
8008
8008
c018
4010
3060
0f80
ENDCHAR
STARTCHAR odieresis
ENCODING 246
SWIDTH 597 0
DWIDTH 15 0
BBX 13 15 1 1
BITMAP
0cc0
0cc0
0cc0
0000
0f80
3060
4010
c018
8008
8008
8008
c018
4010
3060
0f80
ENDCHAR
STARTCHAR divide
ENCODING 247
SWIDTH 597 0
DWIDTH 15 0
BBX 11 11 2 3
BITMAP
0c00
0c00
0000
0000
0000
ffe0
0000
0000
0000
0c00
0c00
ENDCHAR
STARTCHAR rcaron
ENCODING 248
SWIDTH 597 0
DWIDTH 15 0
BBX 12 15 2 1
BITMAP
1200
0c00
0000
0000
f1e0
1230
1400
1800
1000
1000
1000
1000
1000
1000
ff80
ENDCHAR
STARTCHAR uring
ENCODING 249
SWIDTH 597 0
DWIDTH 15 0
BBX 13 16 1 1
BITMAP
0700
0500
0500
0200
0000
e1e0
2020
2020
2020
2020
2020
2020
2020
2060
10e0
0f38
ENDCHAR
STARTCHAR uacute
ENCODING 250
SWIDTH 597 0
DWIDTH 15 0
BBX 13 15 1 1
BITMAP
0300
0600
0c00
0000
e1e0
2020
2020
2020
2020
2020
2020
2020
2060
10e0
0f38
ENDCHAR
STARTCHAR uhungarumlaut
ENCODING 251
SWIDTH 597 0
DWIDTH 15 0
BBX 13 15 1 1
BITMAP
0240
0480
0d00
0000
e1e0
2020
2020
2020
2020
2020
2020
2020
2060
10e0
0f38
ENDCHAR
STARTCHAR udieresis
ENCODING 252
SWIDTH 597 0
DWIDTH 15 0
BBX 13 15 1 1
BITMAP
0cc0
0cc0
0cc0
0000
e1e0
2020
2020
2020
2020
2020
2020
2020
2060
10e0
0f38
ENDCHAR
STARTCHAR yacute
ENCODING 253
SWIDTH 597 0
DWIDTH 15 0
BBX 15 19 0 -3
BITMAP
0180
0300
0600
0000
f83e
2018
3018
1830
1830
0c60
0440
06c0
0280
0380
0100
0300
0600
0600
ff80
ENDCHAR
STARTCHAR tcedilla
ENCODING 254
SWIDTH 597 0
DWIDTH 15 0
BBX 10 18 3 -3
BITMAP
4000
4000
4000
4000
ff80
4000
4000
4000
4000
4000
4000
6000
30c0
1f80
0e00
0600
1200
1e00
ENDCHAR
STARTCHAR dotaccent
ENCODING 255
SWIDTH 597 0
DWIDTH 15 0
BBX 1 3 7 13
BITMAP
80
80
80
ENDCHAR
ENDFONT
